<svg fill="none" height="24" viewBox="0 0 48 48" width="24" xmlns="http://www.w3.org/2000/svg"><path d="m0 0h48v48h-48z" fill="#fff" fill-opacity=".01"/><g stroke="#333" stroke-linecap="round" stroke-linejoin="round" stroke-width="4"><path d="m9.85786 18c-3.61928 3-5.85786 6-5.85786 6s8.9543 12 20 12c1.3699 0 2.7076-.1846 4-.5079m-7.9682-22.9921c1.2826-.3184 2.6096-.5 3.9682-.5 11.0457 0 20 12 20 12s-2.2386 3-5.8579 6"/><path d="m20.3142 20.6213c-.8161.8899-1.3142 2.0761-1.3142 3.3787 0 2.7614 2.2386 5 5 5 1.3627 0 2.5981-.5452 3.5-1.4293"/><path d="m42 42-36-36"/></g></svg>